<svg width="20" height="25" viewBox="0 0 20 25" fill="none" xmlns="http://www.w3.org/2000/svg">
<path d="M9.52381 19.0476C10.1553 19.0476 10.7609 18.7968 11.2074 18.3503C11.6539 17.9037 11.9048 17.2981 11.9048 16.6667C11.9048 16.0352 11.6539 15.4296 11.2074 14.9831C10.7609 14.5366 10.1553 14.2857 9.52381 14.2857C8.89234 14.2857 8.28674 14.5366 7.84022 14.9831C7.39371 15.4296 7.14286 16.0352 7.14286 16.6667C7.14286 17.2981 7.39371 17.9037 7.84022 18.3503C8.28674 18.7968 8.89234 19.0476 9.52381 19.0476ZM16.6667 8.33333C17.2981 8.33333 17.9037 8.58418 18.3503 9.0307C18.7968 9.47721 19.0476 10.0828 19.0476 10.7143V22.619C19.0476 23.2505 18.7968 23.8561 18.3503 24.3026C17.9037 24.7491 17.2981 25 16.6667 25H2.38095C1.74948 25 1.14388 24.7491 0.697365 24.3026C0.25085 23.8561 0 23.2505 0 22.619V10.7143C0 10.0828 0.25085 9.47721 0.697365 9.0307C1.14388 8.58418 1.74948 8.33333 2.38095 8.33333H3.57143V5.95238C3.57143 4.37371 4.19855 2.8597 5.31484 1.74341C6.43113 0.627124 7.94514 0 9.52381 0C10.3055 0 11.0795 0.153963 11.8017 0.453098C12.5239 0.752233 13.18 1.19068 13.7328 1.74341C14.2855 2.29614 14.724 2.95233 15.0231 3.6745C15.3222 4.39668 15.4762 5.1707 15.4762 5.95238V8.33333H16.6667ZM9.52381 2.38095C8.57661 2.38095 7.6682 2.75723 6.99843 3.427C6.32865 4.09677 5.95238 5.00518 5.95238 5.95238V8.33333H13.0952V5.95238C13.0952 5.00518 12.719 4.09677 12.0492 3.427C11.3794 2.75723 10.471 2.38095 9.52381 2.38095Z" fill="white"/>
</svg>
