<svg xmlns="http://www.w3.org/2000/svg" xmlns:xlink="http://www.w3.org/1999/xlink" viewBox="0 0 130.36 159.41"><defs><style>.cls-1{fill:url(#linear-gradient);}.cls-2{fill:#31e981;}</style><linearGradient id="linear-gradient" x1="133.66" y1="79.71" x2="-3.25" y2="79.71" gradientUnits="userSpaceOnUse"><stop offset="0" stop-color="#00120b"/><stop offset="1" stop-color="#31e981"/></linearGradient></defs><g id="Layer_2" data-name="Layer 2"><g id="Layer_1-2" data-name="Layer 1"><path class="cls-1" d="M48.83,2.69A263.12,263.12,0,0,1,80.33,0h6l2,.1c2.64.14,5.29.24,7.93.6A67.51,67.51,0,0,1,111.87,4c.63.24,1.29.42,1.91.69l1.86.84a31.47,31.47,0,0,1,3.63,1.91,25.6,25.6,0,0,1,6.34,5.43,21.08,21.08,0,0,1,3.83,7.55,26.77,26.77,0,0,1,.89,8.33,50.11,50.11,0,0,1-3.7,15.87,107,107,0,0,1-7.07,14.42,220.94,220.94,0,0,1-18.2,26.14c-6.62,8.27-13.61,16.22-20.82,23.94Q58.88,132.32,35,153.23l-1.11-5.79c14.45,4.77,30.11,6,44.8,2.81a63.82,63.82,0,0,0,20.59-8.31,47.64,47.64,0,0,0,15.28-15.21,39.37,39.37,0,0,0,4.24-9.74,42.1,42.1,0,0,0,1.53-10.56,61,61,0,0,0-3.77-21.53,104.22,104.22,0,0,0-9.79-20.27c-1-1.61-2-3.21-3.09-4.79l-1.6-2.3-1.68-2.24a107.64,107.64,0,0,0-7.3-8.57c-10.42-10.82-23-20-36.77-25.57-6.88-2.71-14.17-4.4-21.11-4a24.63,24.63,0,0,0-9.76,2.45A21.38,21.38,0,0,0,17.84,26C13.57,31.48,11,38.72,9.16,46.12a187.85,187.85,0,0,0-3.72,23C5,73,4.68,76.92,4.3,80.84s-.72,7.82-.89,11.74a203.6,203.6,0,0,0,.19,23.56l-1,.12A170.66,170.66,0,0,1,.1,92.56c-.15-4-.11-8,0-11.94s.13-7.92.29-11.9a168.58,168.58,0,0,1,2.36-24,82.23,82.23,0,0,1,3.08-12,45.33,45.33,0,0,1,5.76-11.49A29.6,29.6,0,0,1,21.6,12.22,33.15,33.15,0,0,1,34.5,8.35a48.4,48.4,0,0,1,13,.58,72.74,72.74,0,0,1,12.23,3.29,98.86,98.86,0,0,1,22,11.42,115.72,115.72,0,0,1,18.87,15.93A112.12,112.12,0,0,1,108.7,49l1.85,2.51,1.75,2.59c1.13,1.69,2.22,3.42,3.29,5.18A109.09,109.09,0,0,1,126,81.77a71.14,71.14,0,0,1,3.65,25A50,50,0,0,1,122,131.33a56.37,56.37,0,0,1-18.36,17.56,72.79,72.79,0,0,1-23.31,8.89C64,161,47.09,159.27,31.7,153.87l-5.62-2,4.51-3.82c15.93-13.5,31.33-27.77,45.9-42.76,7.28-7.51,14.33-15.23,21-23.25a215.33,215.33,0,0,0,18.43-25.15,101.86,101.86,0,0,0,7.15-13.69,46.88,46.88,0,0,0,3.8-14.61,23.42,23.42,0,0,0-.59-7.3,17.85,17.85,0,0,0-3.09-6.49,22.5,22.5,0,0,0-5.46-4.9,30.27,30.27,0,0,0-3.3-1.84l-1.71-.82c-.57-.27-1.19-.45-1.78-.69A65.68,65.68,0,0,0,95.92,3c-2.57-.42-5.17-.57-7.77-.77l-2-.16-2-.05L80.33,1.9A261.6,261.6,0,0,0,49,3.68Z"/><path class="cls-2" d="M23.6,134.06h0a2.53,2.53,0,0,0-2.08-1.42L12.35,132a1.8,1.8,0,0,1-1.48-1l-1.56-3.15a5.88,5.88,0,0,0-1.64-2l-.44-.35a.55.55,0,0,0-.89.43v.57A5.78,5.78,0,0,0,6.89,129l1.5,3.17a1.82,1.82,0,0,1-.14,1.79l-5.16,7.6a2.55,2.55,0,0,0-.18,2.52h0a39.41,39.41,0,0,1,7.18-7.18.39.39,0,0,1,.6.14h0l-.58.5a.69.69,0,0,0-.12.95l.59.81a.62.62,0,0,0,.32.23h0a.57.57,0,0,1,.33.24l.21.29-.11-.38a.59.59,0,0,1,0-.37l.07-.2.1-.32.32.67a5.22,5.22,0,0,0,.77,1.2l1.54,1.85-1.86,1.94a1.24,1.24,0,0,0-.15,1.53l.48.73,2.68-2.81.43.51a.1.1,0,0,0,.18-.09l-.13-.65,3.87-.36-.28-.83a1.24,1.24,0,0,0-1.28-.84l-2.69.23-.48-2.32a5.84,5.84,0,0,0-.47-1.35l-.33-.67.32.12.2.07a.58.58,0,0,1,.29.22l.24.33-.11-.35a.64.64,0,0,1,0-.41h0a.58.58,0,0,0,0-.39l-.27-1a.7.7,0,0,0-.82-.51l-.75.15h0a.39.39,0,0,1,.26-.55A38.75,38.75,0,0,1,23.6,134.06Z"/></g></g></svg>