<svg xmlns="http://www.w3.org/2000/svg" xmlns:xlink="http://www.w3.org/1999/xlink" viewBox="0 0 133.04 161.8"><defs><style>.cls-1{fill:url(#linear-gradient);}.cls-2{fill:#31e981;}</style><linearGradient id="linear-gradient" x1="137.19" y1="80.9" x2="-4.72" y2="80.9" gradientUnits="userSpaceOnUse"><stop offset="0" stop-color="#00120b"/><stop offset="1" stop-color="#31e981"/></linearGradient></defs><g id="Layer_2" data-name="Layer 2"><g id="Layer_1-2" data-name="Layer 1"><path class="cls-1" d="M49.83,2.94A263.33,263.33,0,0,1,81.36,0a123.41,123.41,0,0,1,16,.59,68.25,68.25,0,0,1,15.82,3.29c.65.23,1.31.41,1.94.69l1.9.83a32.91,32.91,0,0,1,3.72,1.94,26.18,26.18,0,0,1,6.56,5.56,22,22,0,0,1,4,7.82,27.28,27.28,0,0,1,1,8.58,51,51,0,0,1-3.66,16.19,108,108,0,0,1-7.06,14.6A222.82,222.82,0,0,1,103.36,86.5c-6.59,8.35-13.56,16.36-20.74,24.15S68,126,60.47,133.43,45.19,148.06,37.2,155.09l-1.69-8.85c14.2,4.63,29.53,5.8,43.82,2.6a62,62,0,0,0,19.92-8.13,45,45,0,0,0,14.53-14.61,38.13,38.13,0,0,0,5.28-19.26,59.07,59.07,0,0,0-3.8-20.65,103.67,103.67,0,0,0-9.64-19.72c-1-1.57-2-3.14-3.06-4.7L101,59.55l-1.64-2.18A105.63,105.63,0,0,0,92.26,49c-2.51-2.68-5.23-5.17-8-7.61a105.82,105.82,0,0,0-8.68-6.86A94.4,94.4,0,0,0,56.52,23.93c-6.63-2.68-13.61-4.37-20.08-4.08A22.68,22.68,0,0,0,27.49,22a16.92,16.92,0,0,0-3.76,2.35,21,21,0,0,0-3.28,3.31,38.18,38.18,0,0,0-5.16,8.85A71.93,71.93,0,0,0,11.81,47,188.48,188.48,0,0,0,7.75,69.69c-.48,3.88-.9,7.79-1.35,11.71s-.88,7.78-1.13,11.68a217,217,0,0,0-.39,23.53l-1.49.18A163.86,163.86,0,0,1,.3,93.05c-.22-4-.26-8-.28-12S0,73.12.1,69.13a164,164,0,0,1,2-24.22,81.33,81.33,0,0,1,3-12.28,46.25,46.25,0,0,1,5.87-12,31.4,31.4,0,0,1,10.65-9.76,35.33,35.33,0,0,1,13.7-4.21,51.17,51.17,0,0,1,13.59.51,72.4,72.4,0,0,1,12.66,3.3,101.35,101.35,0,0,1,22.63,11.6,116.45,116.45,0,0,1,19.31,16.22,115.79,115.79,0,0,1,8.27,9.65l1.89,2.58,1.8,2.66c1.14,1.71,2.25,3.48,3.33,5.28a110.65,110.65,0,0,1,10.52,23A73.18,73.18,0,0,1,133,107.36a53.89,53.89,0,0,1-2.38,13.31A50.64,50.64,0,0,1,124.8,133a58.86,58.86,0,0,1-19.12,18.14,74.45,74.45,0,0,1-24,9.07c-16.7,3.28-33.92,1.42-49.57-4.12l-8.58-3,6.88-5.81c15.91-13.42,31.41-27.53,46-42.4,7.31-7.44,14.38-15.1,21.08-23A214.52,214.52,0,0,0,116,56.87a101.16,101.16,0,0,0,7.17-13.51A45.9,45.9,0,0,0,127,29.06a22.61,22.61,0,0,0-.52-7,17.18,17.18,0,0,0-2.9-6.23A21.82,21.82,0,0,0,118.37,11a29.56,29.56,0,0,0-3.21-1.82l-1.68-.81c-.56-.27-1.16-.46-1.75-.7A65.16,65.16,0,0,0,96.88,4.06c-2.55-.43-5.14-.59-7.73-.82l-1.94-.17L85.26,3l-3.9-.14A259.09,259.09,0,0,0,50,4.43Z"/><path class="cls-2" d="M24.63,134.56h0a2.49,2.49,0,0,0-2.08-1.42l-9.17-.69a1.76,1.76,0,0,1-1.48-1l-1.56-3.14a5.87,5.87,0,0,0-1.63-2L8.26,126a.55.55,0,0,0-.89.43V127a5.8,5.8,0,0,0,.55,2.53l1.5,3.17a1.8,1.8,0,0,1-.14,1.78L4.13,142a2.53,2.53,0,0,0-.19,2.52h0a39.41,39.41,0,0,1,7.18-7.18.39.39,0,0,1,.6.14h0l-.58.49a.7.7,0,0,0-.12,1l.59.81a.62.62,0,0,0,.32.23h0a.6.6,0,0,1,.34.24l.2.29-.11-.39a.56.56,0,0,1,0-.36l.07-.2.1-.32.32.67a5.58,5.58,0,0,0,.77,1.2L15.17,143l-1.86,1.93a1.25,1.25,0,0,0-.15,1.54l.48.72,2.68-2.8.43.51a.11.11,0,0,0,.19-.09l-.14-.65,3.87-.36-.28-.83a1.23,1.23,0,0,0-1.28-.84l-2.69.23L15.94,140a5.84,5.84,0,0,0-.47-1.35l-.33-.67.32.12.2.07a.58.58,0,0,1,.29.22l.24.32-.11-.34a.64.64,0,0,1,0-.41h0a.58.58,0,0,0,0-.39l-.26-1a.72.72,0,0,0-.83-.51l-.74.15h0a.39.39,0,0,1,.25-.56A39.27,39.27,0,0,1,24.63,134.56Z"/></g></g></svg>